# Blender 4.1.1
# www.blender.org
o Cone
v 2.000000 0.000000 1.000000
v 1.804910 0.000000 0.980785
v 1.617316 0.000000 0.923880
v 1.444430 0.000000 0.831470
v 1.292893 0.000000 0.707107
v 1.168530 0.000000 0.555570
v 1.076120 0.000000 0.382683
v 1.019215 0.000000 0.195090
v 1.000000 0.000000 0.000000
v 1.019215 0.000000 -0.195090
v 1.076120 0.000000 -0.382683
v 1.168530 0.000000 -0.555570
v 1.292893 0.000000 -0.707107
v 1.444430 0.000000 -0.831470
v 1.617316 0.000000 -0.923880
v 1.804910 0.000000 -0.980785
v 2.000000 0.000000 -1.000000
v 2.195090 0.000000 -0.980785
v 2.382684 0.000000 -0.923880
v 2.555570 0.000000 -0.831470
v 2.707107 0.000000 -0.707107
v 2.831470 0.000000 -0.555570
v 2.923880 0.000000 -0.382683
v 2.980785 0.000000 -0.195090
v 3.000000 0.000000 0.000000
v 2.980785 0.000000 0.195090
v 2.923880 0.000000 0.382683
v 2.831470 0.000000 0.555570
v 2.707107 0.000000 0.707107
v 2.555570 0.000000 0.831470
v 2.382684 0.000000 0.923880
v 2.195090 0.000000 0.980785
v 2.000000 2.000000 0.000000
vn -0.0878 0.4455 0.8910
vn -0.2599 0.4455 0.8567
vn -0.4220 0.4455 0.7896
vn -0.5680 0.4455 0.6921
vn -0.6921 0.4455 0.5680
vn -0.7896 0.4455 0.4220
vn -0.8567 0.4455 0.2599
vn -0.8910 0.4455 0.0878
vn -0.8910 0.4455 -0.0878
vn -0.8567 0.4455 -0.2599
vn -0.7896 0.4455 -0.4220
vn -0.6921 0.4455 -0.5680
vn -0.5680 0.4455 -0.6921
vn -0.4220 0.4455 -0.7896
vn -0.2599 0.4455 -0.8567
vn -0.0878 0.4455 -0.8910
vn 0.0878 0.4455 -0.8910
vn 0.2599 0.4455 -0.8567
vn 0.4220 0.4455 -0.7896
vn 0.5680 0.4455 -0.6921
vn 0.6921 0.4455 -0.5680
vn 0.7896 0.4455 -0.4220
vn 0.8567 0.4455 -0.2599
vn 0.8910 0.4455 -0.0878
vn 0.8910 0.4455 0.0878
vn 0.8567 0.4455 0.2599
vn 0.7896 0.4455 0.4220
vn 0.6921 0.4455 0.5680
vn 0.5680 0.4455 0.6921
vn 0.4220 0.4455 0.7896
vn -0.0000 -1.0000 -0.0000
vn 0.2599 0.4455 0.8567
vn 0.0878 0.4455 0.8910
s 0
f 1//1 33//1 2//1
f 2//2 33//2 3//2
f 3//3 33//3 4//3
f 4//4 33//4 5//4
f 5//5 33//5 6//5
f 6//6 33//6 7//6
f 7//7 33//7 8//7
f 8//8 33//8 9//8
f 9//9 33//9 10//9
f 10//10 33//10 11//10
f 11//11 33//11 12//11
f 12//12 33//12 13//12
f 13//13 33//13 14//13
f 14//14 33//14 15//14
f 15//15 33//15 16//15
f 16//16 33//16 17//16
f 17//17 33//17 18//17
f 18//18 33//18 19//18
f 19//19 33//19 20//19
f 20//20 33//20 21//20
f 21//21 33//21 22//21
f 22//22 33//22 23//22
f 23//23 33//23 24//23
f 24//24 33//24 25//24
f 25//25 33//25 26//25
f 26//26 33//26 27//26
f 27//27 33//27 28//27
f 28//28 33//28 29//28
f 29//29 33//29 30//29
f 30//30 33//30 31//30
f 16//31 24//31 32//31
f 31//32 33//32 32//32
f 32//33 33//33 1//33
f 32//31 1//31 2//31
f 2//31 3//31 4//31
f 4//31 5//31 6//31
f 6//31 7//31 8//31
f 8//31 9//31 10//31
f 10//31 11//31 12//31
f 12//31 13//31 14//31
f 14//31 15//31 16//31
f 16//31 17//31 18//31
f 18//31 19//31 20//31
f 20//31 21//31 22//31
f 22//31 23//31 24//31
f 24//31 25//31 26//31
f 26//31 27//31 28//31
f 28//31 29//31 30//31
f 30//31 31//31 32//31
f 32//31 2//31 4//31
f 4//31 6//31 8//31
f 8//31 10//31 12//31
f 12//31 14//31 16//31
f 16//31 18//31 20//31
f 20//31 22//31 24//31
f 24//31 26//31 28//31
f 28//31 30//31 32//31
f 32//31 4//31 8//31
f 8//31 12//31 16//31
f 16//31 20//31 24//31
f 24//31 28//31 32//31
f 32//31 8//31 16//31
o Cube
v -1.000000 0.000000 -1.000000
v -1.000000 2.000000 -1.000000
v -1.000000 0.000000 1.000000
v -1.000000 2.000000 1.000000
v -3.000000 0.000000 -1.000000
v -3.000000 2.000000 -1.000000
v -3.000000 0.000000 1.000000
v -3.000000 2.000000 1.000000
vn 1.0000 -0.0000 -0.0000
vn -0.0000 -0.0000 1.0000
vn -1.0000 -0.0000 -0.0000
vn -0.0000 -0.0000 -1.0000
vn -0.0000 -1.0000 -0.0000
vn -0.0000 1.0000 -0.0000
s 0
f 35//34 36//34 34//34
f 37//35 40//35 36//35
f 41//36 38//36 40//36
f 39//37 34//37 38//37
f 40//38 34//38 36//38
f 37//39 39//39 41//39
f 35//34 37//34 36//34
f 37//35 41//35 40//35
f 41//36 39//36 38//36
f 39//37 35//37 34//37
f 40//38 38//38 34//38
f 37//39 35//39 39//39
